<svg width="24" height="24" viewBox="0 0 24 24" version="1.1" xmlns="http://www.w3.org/2000/svg" xmlns:xlink="http://www.w3.org/1999/xlink">
<g id="Canvas" fill="none">
<g id="iconmonstr-facebook-6">
<path id="Vector" d="M 22.675 0L 1.325 0C 0.593 0 0 0.593 0 1.325L 0 22.676C 0 23.407 0.593 24 1.325 24L 12.82 24L 12.82 14.706L 9.692 14.706L 9.692 11.084L 12.82 11.084L 12.82 8.413C 12.82 5.313 14.713 3.625 17.479 3.625C 18.804 3.625 19.942 3.724 20.274 3.768L 20.274 7.008L 18.356 7.009C 16.852 7.009 16.561 7.724 16.561 8.772L 16.561 11.085L 20.148 11.085L 19.681 14.707L 16.561 14.707L 16.561 24L 22.677 24C 23.407 24 24 23.407 24 22.675L 24 1.325C 24 0.593 23.407 0 22.675 0L 22.675 0Z" fill="white"/>
</g>
</g>
</svg>
