<svg width="20" height="16" viewBox="0 0 20 16" version="1.1" xmlns="http://www.w3.org/2000/svg" xmlns:xlink="http://www.w3.org/1999/xlink">
<g id="Canvas" fill="none">
<g id="Monogram">
<g id="Page 1">
<g id="Monogram_2">
<path id="Shape" d="M 2.37162 3.26396C 2.39646 3.01656 2.30284 2.77204 2.11951 2.60553L 0.252101 0.338624L 0.252101 0L 6.05042 0L 10.5322 9.90476L 14.4725 0L 20 0L 20 0.338624L 18.4034 1.88125C 18.2657 1.98698 18.1974 2.16075 18.226 2.33275L 18.226 13.6673C 18.1974 13.8392 18.2657 14.013 18.4034 14.1188L 19.9627 15.6614L 19.9627 16L 12.1195 16L 12.1195 15.6614L 13.7348 14.0811C 13.8936 13.9212 13.8936 13.8742 13.8936 13.6296L 13.8936 4.46796L 9.40243 15.9624L 8.79552 15.9624L 3.56676 4.46796L 3.56676 12.1717C 3.52316 12.4955 3.62991 12.8216 3.85621 13.0558L 5.95705 15.6238L 5.95705 15.9624L 0 15.9624L 0 15.6238L 2.10084 13.0558C 2.32549 12.8212 2.42601 12.493 2.37162 12.1717L 2.37162 3.26396Z" fill="white"/>
</g>
</g>
</g>
</g>
</svg>
